<svg width="19" height="21" viewBox="0 0 19 21" fill="none" xmlns="http://www.w3.org/2000/svg">
<path d="M1.6272 11.7752V15.3893C1.6272 17.5985 3.41806 19.3893 5.62719 19.3893H13.4411C15.6503 19.3893 17.4412 17.5985 17.4412 15.3893V11.7752" stroke="black" stroke-width="2"/>
<path d="M9.94832 0.525461C9.55779 0.134936 8.92463 0.134936 8.5341 0.525461L2.17014 6.88942C1.77962 7.27995 1.77962 7.91311 2.17014 8.30363C2.56067 8.69416 3.19383 8.69416 3.58436 8.30363L9.24121 2.64678L14.8981 8.30363C15.2886 8.69416 15.9218 8.69416 16.3123 8.30363C16.7028 7.91311 16.7028 7.27995 16.3123 6.88942L9.94832 0.525461ZM10.2412 10.0181L10.2412 1.23257H8.24121L8.24121 10.0181H10.2412Z" fill="black"/>
</svg>
